
<svg xmlns="http://www.w3.org/2000/svg" viewBox="0 0 48 48"><g fill="none" stroke="#000" stroke-width="2" stroke-linecap="round" stroke-linejoin="round" stroke-miterlimit="10"><path d="M34.563 17.116S24.41 19.001 20.825 9.709l-4.664 3.784-4.663 3.783c8.35 5.424 4.414 14.971 4.414 14.971 8.643.125 17.595 5.767 21.642 8.671a3.682 3.682 0 0 0 5.119 5.258 3.684 3.684 0 1 0-4.091-6.094c-2.004-4.558-5.677-14.48-4.019-22.966zM24.724 24.047l13.572 16.732"/><path d="M3.963 11.06L16.361 1.001l6.032 7.436L9.996 18.495zM14.702 20.892l9.038-7.329M35.49 46.999H8.796"/></g></svg>