
<svg xmlns="http://www.w3.org/2000/svg" viewBox="0 0 100 100"><path d="M30.073 69.674l-6.597-6.612-12.973 6.928c1.705 4.503-4.202 14.324-4.202 14.324l-1.028 3.379 10.988-11.987 1.279-.14-.162 1.529L5.435 87.863l3.277-.912s9.828-5.899 14.324-4.187M76.754 9.854C55.744 19.86 24.252 62.187 24.252 62.187l6.597 6.612c47.954-35.657 52.943-51.923 52.943-51.923l-7.038-7.022zM86.144 14.694a3.435 3.435 0 0 0 0-4.844l-2.212-2.211a3.434 3.434 0 0 0-4.844 0L77.74 8.996l7.039 7.049 1.365-1.351zM56.59 74.767c-1.31.03-2.785.168-4.397.31l-2.515.326c-.87.122-1.762.341-2.686.517-.46.106-.924.252-1.396.379-.471.132-.946.252-1.447.468-.485.197-1.025.386-1.474.62l-.647.362-.326.182-.163.091-.082.046-.085.055-.021.016-.043.033-.682.531c-.23.173-.457.356-.655.604-.204.233-.413.462-.608.708l-.48.858c-.57 1.228-.557 2.605-.36 3.741.415 2.217.965 4.12.003 5.185-.445.609-1.218 1.137-2.072 1.591-.883.462-1.837.775-2.742 1.173l-1.432.393c-.474.135-.94.295-1.43.355-.968.161-1.918.373-2.884.404l-1.427.108-1.412-.001c-.933.036-1.848-.06-2.74-.114-1.783-.151-3.467-.419-5.019-.707a72.038 72.038 0 0 1-4.203-1.012 78.907 78.907 0 0 1-3.204-.991c-.879-.308-1.576-.546-2.043-.728l-.716-.284s.891.602 2.563 1.472c.838.43 1.868.932 3.083 1.44l1.953.771c.697.248 1.441.482 2.215.735.786.21 1.601.458 2.459.66.865.171 1.752.398 2.688.512.934.123 1.891.288 2.888.321l1.508.086 1.546-.05c2.083-.049 4.237-.436 6.37-1.051 1.029-.424 2.101-.77 3.111-1.28 1.015-.534 2.102-1.174 2.957-2.279a4.99 4.99 0 0 0 .891-1.926c.154-.696.14-1.36.088-1.968-.108-1.218-.436-2.282-.592-3.222-.158-.924-.155-1.716.11-2.391.236-.694.897-1.272 1.552-1.824l.03-.026.015-.013.034-.021.159-.098.318-.196.631-.389c.415-.232.801-.368 1.193-.568.372-.198.814-.345 1.241-.496.428-.148.843-.313 1.269-.442 1.715-.5 3.381-.891 4.931-1.231 1.564-.275 2.993-.591 4.278-.783 1.282-.204 2.398-.419 3.325-.546 1.849-.286 2.908-.474 2.908-.474s-1.071-.025-2.949-.028a65.962 65.962 0 0 0-3.385.086zM92.563 76.273l-.982-.531a38.98 38.98 0 0 0-1.323-.59c-.484-.226-1.031-.403-1.608-.6a17.865 17.865 0 0 0-1.836-.55c-1.282-.359-2.683-.599-4.086-.796a37.428 37.428 0 0 0-4.147-.289 34.539 34.539 0 0 0-3.617.136c-2.112.193-3.485.535-3.485.535l.967.004c.613-.01 1.49.027 2.535.056 1.046.034 2.263.095 3.562.183 1.298.101 2.68.216 4.052.407.686.093 1.375.167 2.044.298.671.118 1.336.211 1.968.359.636.13 1.253.248 1.828.403.576.15 1.133.258 1.628.418.498.151.962.275 1.374.385l1.043.356c.581.196.922.296.922.296s-.298-.181-.839-.48z"/></svg>