
<svg xmlns="http://www.w3.org/2000/svg" viewBox="0 0 100 100"><path d="M32.938 66.207a1.407 1.407 0 0 0-1.986 0l-4.497 4.496a1.405 1.405 0 0 0 1.986 1.986l4.497-4.496a1.405 1.405 0 0 0 0-1.986z"/><path d="M83.739 74.765c-9.23-2.852-18.767-3.657-28.35-2.402l-.75.098a1.405 1.405 0 0 0-1.015 2.127l2.229 3.631c-10.689 1.576-21.618 2.494-32.594 2.759l11.265-5.2c.112-.052.217-.118.312-.197.702-.587 4.214-3.66 4.371-6.535a8.342 8.342 0 0 0-.214-2.421c.483.083.977.13 1.483.13 2.124 0 4.099-.758 5.419-2.078l7.03-7.03 8.761-8.761c8.824-8.824 15.959-19.179 21.208-30.776a1.405 1.405 0 0 0-1.858-1.859C69.438 21.5 59.084 28.635 50.26 37.459l-8.76 8.76-7.03 7.029c-1.618 1.618-2.4 4.311-1.959 6.902a8.895 8.895 0 0 0-2.41-.213c-2.876.157-5.95 3.669-6.537 4.371-.079.095-.146.2-.197.312L15.4 81.882l-.004.016a1.418 1.418 0 0 0-.104.363c-.005.03-.006.059-.009.088-.004.041-.012.081-.012.122 0 .071.011.14.021.208.003.017.002.033.005.05.023.125.066.242.12.354l.038.07a1.4 1.4 0 0 0 .228.311c.13.13.285.233.458.304l.012.004a1.4 1.4 0 0 0 .523.103c14.044 0 28.073-1.076 41.699-3.198a1.404 1.404 0 0 0 .981-2.122l-2.195-3.577a63.39 63.39 0 0 1 25.752 2.471 1.406 1.406 0 0 0 1.756-.928 1.407 1.407 0 0 0-.93-1.756zM47.714 58.886l-7.455-7.455 2.234-2.234 7.455 7.455-2.234 2.234zm4.533-19.443c7.676-7.676 16.546-14.04 26.408-18.953-4.914 9.862-11.277 18.732-18.954 26.408l-7.767 7.768-5.064-5.064-2.391-2.391 7.768-7.768zM36.456 55.234l1.818-1.818 7.455 7.455-1.817 1.818c-.787.786-2.07 1.256-3.434 1.256-1.482 0-2.828-.529-3.788-1.489-2.065-2.064-1.817-5.64-.234-7.222zM25.837 65.972c1.164-1.348 3.222-3.165 4.414-3.23a5.814 5.814 0 0 1 4.453 1.701 5.796 5.796 0 0 1 1.7 4.448c-.065 1.195-1.883 3.253-3.23 4.417l-13.626 6.291 6.289-13.627z"/></svg>